<?xml version="1.0" encoding="UTF-8"?>
<svg version="1.1" xmlns="http://www.w3.org/2000/svg" width="256" height="256">
<path d="M0 0 C4.05897793 3.41323144 6.23926894 6.50791693 7.6875 11.625 C7.77780779 16.95315976 6.87363701 21.8782246 3.28125 25.99609375 C-0.55187677 29.3125 -0.55187677 29.3125 -3.25 29.3125 C-3.25 30.6325 -3.25 31.9525 -3.25 33.3125 C-2.59 33.3125 -1.93 33.3125 -1.25 33.3125 C-1.25 34.9625 -1.25 36.6125 -1.25 38.3125 C-1.91 38.3125 -2.57 38.3125 -3.25 38.3125 C-3.25 39.9625 -3.25 41.6125 -3.25 43.3125 C-2.64196533 43.29074707 -2.03393066 43.26899414 -1.4074707 43.24658203 C21.01568917 42.7947191 43.93254596 52.83151667 60.75 67.3125 C61.60464844 68.01890625 62.45929688 68.7253125 63.33984375 69.453125 C85.11996659 88.11221329 97.23642416 113.63108162 100.5 141.8125 C100.76814494 146.63910894 100.75 151.47844833 100.75 156.3125 C90.19 156.3125 79.63 156.3125 68.75 156.3125 C67.57939169 150.45945845 66.47881105 144.68536632 65.5 138.8125 C60.9993226 114.20034213 50.1701647 91.47622739 30.13671875 75.8984375 C27.44516593 74.1099425 24.66532014 72.70074769 21.75 71.3125 C22.45125 71.95574219 23.1525 72.59898438 23.875 73.26171875 C44.47963879 92.88651738 51.79774646 119.65032682 53.75 147.3125 C53.75 150.2825 53.75 153.2525 53.75 156.3125 C-3.34 156.3125 -60.43 156.3125 -119.25 156.3125 C-117.76101883 128.02185774 -112.31155284 102.95682049 -93.25 81.3125 C-92.23679687 80.08466797 -92.23679687 80.08466797 -91.203125 78.83203125 C-81.73829112 67.69185269 -70.06192674 60.05880381 -57.25 53.3125 C-56.39535156 52.84070313 -55.54070312 52.36890625 -54.66015625 51.8828125 C-48.59755269 48.79883407 -42.26006112 47.121771 -35.6875 45.5 C-34.37543579 45.17092651 -34.37543579 45.17092651 -33.03686523 44.83520508 C-27.02758166 43.4392569 -21.40972694 43.05229965 -15.25 43.3125 C-15.25 41.6625 -15.25 40.0125 -15.25 38.3125 C-15.91 38.3125 -16.57 38.3125 -17.25 38.3125 C-17.25 36.6625 -17.25 35.0125 -17.25 33.3125 C-16.59 33.3125 -15.93 33.3125 -15.25 33.3125 C-15.25 31.9925 -15.25 30.6725 -15.25 29.3125 C-15.9925 29.085625 -16.735 28.85875 -17.5 28.625 C-21.34146563 26.79157322 -23.36488412 24.08273176 -25.25 20.3125 C-25.75502343 14.78207948 -25.98807257 9.90219476 -23.625 4.8125 C-16.63526802 -2.54511261 -9.20740247 -4.78076666 0 0 Z " fill="#FFFFFF" transform="translate(137.25,34.6875)"/>
<path d="M0 0 C84.48 0 168.96 0 256 0 C256 4.62 256 9.24 256 14 C171.52 14 87.04 14 0 14 C0 9.38 0 4.76 0 0 Z " fill="#FFFFFF" transform="translate(0,210)"/>
</svg>
